<?xml version="1.0" encoding="iso-8859-1"?>
<!-- Generator: Adobe Illustrator 19.0.0, SVG Export Plug-In . SVG Version: 6.00 Build 0)  -->
<svg version="1.1" id="Capa_1" xmlns="http://www.w3.org/2000/svg" xmlns:xlink="http://www.w3.org/1999/xlink" x="0px" y="0px"
	 viewBox="0 0 512.001 512.001" style="enable-background:new 0 0 512.001 512.001;" xml:space="preserve">
<path style="fill:#E83A00;" d="M341.322,14.617v292.58c119.451,0,170.644,60.248,170.644-51.199S440.735,49.758,341.322,14.617z"/>
<path style="fill:#FF650C;" d="M507.704,209.198L89.619,450.579c80.139,68.523,197.849,82.815,294.364,27.092
	C480.5,421.947,526.977,312.862,507.704,209.198z"/>
<path style="fill:#FF8D00;" d="M422.382,450.579L4.297,209.198c-19.273,103.663,27.205,212.75,123.72,268.473
	C224.533,533.395,342.242,519.102,422.382,450.579z"/>
<path style="fill:#FFBD00;" d="M170.678,497.379V14.617C71.267,49.758,0.034,144.551,0.034,255.997
	C0.034,367.444,71.267,462.238,170.678,497.379z"/>
<path style="fill:#FFD805;" d="M4.297,302.797l337.025-194.581V14.691C273.237-9.354,195.456-4.611,128.018,34.324
	C31.502,90.047-14.975,199.133,4.297,302.797z"/>
<path style="fill:#FFEE4C;" d="M89.619,61.416l251.703,145.321V14.631C254.476-16.177,158.265,2.72,89.619,61.416z"/>
<g>
	<path style="fill:#FFE359;" d="M342.155,14.92c0.023,0.008,0.046,0.017,0.069,0.025C342.201,14.937,342.178,14.929,342.155,14.92z"
		/>
	<path style="fill:#FFE359;" d="M341.322,14.617v0.014c0.277,0.098,0.556,0.19,0.832,0.289
		C341.876,14.821,341.601,14.715,341.322,14.617z"/>
</g>
<g>
</g>
<g>
</g>
<g>
</g>
<g>
</g>
<g>
</g>
<g>
</g>
<g>
</g>
<g>
</g>
<g>
</g>
<g>
</g>
<g>
</g>
<g>
</g>
<g>
</g>
<g>
</g>
<g>
</g>
</svg>
