<?xml version="1.0" encoding="iso-8859-1"?>
<!-- Generator: Adobe Illustrator 19.0.0, SVG Export Plug-In . SVG Version: 6.00 Build 0)  -->
<svg version="1.1" id="Capa_1" xmlns="http://www.w3.org/2000/svg" xmlns:xlink="http://www.w3.org/1999/xlink" x="0px" y="0px"
	 viewBox="0 0 512 512" style="enable-background:new 0 0 512 512;" xml:space="preserve">
<path style="fill:#303C42;" d="M256,0C114.833,0,0,114.844,0,256s114.833,256,256,256s256-114.844,256-256S397.167,0,256,0z"/>
<polygon style="fill:#F2F2F2;" points="305.284,341.333 206.717,341.333 157.451,255.999 206.716,170.667 305.283,170.667 
	354.549,256.001 "/>
<path style="fill:#880E4F;" d="M329.9,170.667h144.469c10.389,26.487,16.298,55.207,16.298,85.333
	c0,46.997-14.025,90.719-37.911,127.464L329.9,170.667z"/>
<path style="fill:#E53935;" d="M464.762,149.333H219.033l72.202-125.061C367.042,35.766,430.974,83.479,464.762,149.333z"/>
<path style="fill:#FF8F00;" d="M256,21.333c4.039,0,7.975,0.402,11.965,0.605L145.142,234.68L72.918,109.581
	C115.958,55.871,181.978,21.333,256,21.333z"/>
<path style="fill:#FFCA28;" d="M59.245,128.536L182.1,341.333H37.632C27.242,314.846,21.333,286.126,21.333,256
	C21.333,209.003,35.358,165.281,59.245,128.536z"/>
<path style="fill:#7CB342;" d="M47.238,362.667h245.729l-72.202,125.061C144.958,476.234,81.026,428.521,47.238,362.667z"/>
<path style="fill:#0288D1;" d="M256,490.667c-4.039,0-7.975-0.402-11.965-0.605L366.858,277.32l72.224,125.099
	C396.042,456.129,330.022,490.667,256,490.667z"/>
<path style="opacity:0.1;enable-background:new    ;" d="M421.648,329.585l31.107,53.879
	c23.887-36.745,37.911-80.466,37.911-127.464c0-30.126-5.909-58.846-16.298-85.333h-5.576c0.148,3.565,0.54,7.066,0.54,10.667
	C469.333,236.603,451.547,287.697,421.648,329.585z"/>
<path style="opacity:0.1;enable-background:new    ;" d="M61.875,387.25c35.941,52.979,92.895,90.471,158.891,100.478l30.94-53.591
	c-12.552,1.9-25.298,3.197-38.372,3.197C156.626,437.333,104.348,418.576,61.875,387.25z"/>
<path style="opacity:0.1;enable-background:new    ;" d="M279.691,428.301l-35.656,61.76c3.99,0.203,7.926,0.605,11.965,0.605
	c74.022,0,140.042-34.538,183.082-88.247l-31.583-54.704C374.421,386.259,330.124,414.73,279.691,428.301z"/>
<linearGradient id="SVGID_1_" gradientUnits="userSpaceOnUse" x1="-45.5785" y1="639.5551" x2="-23.8277" y2="629.4137" gradientTransform="matrix(21.3333 0 0 -21.3333 996.3334 13791.667)">
	<stop  offset="0" style="stop-color:#FFFFFF;stop-opacity:0.2"/>
	<stop  offset="1" style="stop-color:#FFFFFF;stop-opacity:0"/>
</linearGradient>
<path style="fill:url(#SVGID_1_);" d="M256,0C114.833,0,0,114.844,0,256s114.833,256,256,256s256-114.844,256-256S397.167,0,256,0z"
	/>
<g>
</g>
<g>
</g>
<g>
</g>
<g>
</g>
<g>
</g>
<g>
</g>
<g>
</g>
<g>
</g>
<g>
</g>
<g>
</g>
<g>
</g>
<g>
</g>
<g>
</g>
<g>
</g>
<g>
</g>
</svg>
