<svg height="504pt" viewBox="0 0 504 504.74783" width="504pt" xmlns="http://www.w3.org/2000/svg"><path d="m303.691406 131.769531c.171875-.085937.261719-.085937.433594-.175781v355.796875c-.027344 9.574219-7.78125 17.328125-17.355469 17.355469h-69.421875c-9.574218-.027344-17.328125-7.78125-17.359375-17.355469v-328.894531c-.121093-.011719-.242187.019531-.34375.085937h-.089843l-.171876-.605469.695313-95.804687h104.222656zm0 0" fill="#cbb292"/><path d="m370.597656 384.296875c-1.648437 2.34375-3.46875 4.601563-5.292968 6.769531h-.085938c-2.257812 2.601563-4.511719 5.292969-7.117188 7.808594-.53125.679688-1.113281 1.316406-1.734374 1.910156-5.867188 5.890625-12.257813 11.234375-19.09375 15.96875-2.339844 1.734375-4.683594 3.382813-7.113282 4.859375-3.5 2.253907-7.121094 4.308594-10.847656 6.160157h-.085938c-4.886718 2.574218-9.929687 4.835937-15.101562 6.769531-6.5625 2.46875-13.289062 4.46875-20.132812 5.988281-2.863282.605469-5.640626 1.128906-8.503907 1.5625-5.378906.867188-10.761719 1.386719-16.140625 1.734375-41.617187 2.097656-82.171875-13.542969-111.597656-43.042969-3.125-3.125-6.074219-6.421875-8.941406-9.71875-39.132813-46.84375-45.34375-112.960937-15.617188-166.269531v-.085937c5.851563-10.605469 13.058594-20.40625 21.433594-29.160157.953125-1.15625 1.996094-2.285156 3.125-3.382812 2.777344-2.777344 5.726562-5.46875 8.675781-7.984375 2.257813-1.910156 4.511719-3.730469 6.769531-5.378906 7.566407-5.777344 15.675782-10.804688 24.210938-15.015626 3.730469-1.820312 7.550781-3.46875 11.367188-4.945312l.78125-.261719h.089843c2.410157-.964843 4.875-1.804687 7.375-2.515625 6.207031-2.058594 12.558594-3.652344 19.003907-4.773437 3.472656-.605469 6.941406-1.128907 10.414062-1.472657 2.863281-.347656 5.726562-.523437 8.589844-.695312 41.519531-1.964844 81.941406 13.660156 111.339844 43.042969 9.6875 9.625 17.957031 20.582031 24.558593 32.542969v.085937c28.203125 50.574219 24.160157 112.984375-10.328125 159.5zm0 0" fill="#c03a2b"/><g fill="#e6e7e8"><path d="m337.273438 416.753906c-2.339844 1.734375-4.683594 3.382813-7.113282 4.859375-3.5 2.253907-7.121094 4.308594-10.847656 6.160157h-.085938c-54.082031-15.222657-99.226562-52.558594-124.324218-102.820313-25.101563-50.265625-27.820313-108.785156-7.496094-161.164063 3.730469-1.820312 7.550781-3.46875 11.367188-4.945312l.78125-.261719h.089843c2.410157-.964843 4.875-1.804687 7.375-2.515625.664063 2.054688.542969 4.28125-.347656 6.25-21.804687 49.621094-20.402344 106.375 3.832031 154.859375 24.234375 48.488281 68.785156 83.675781 121.566406 96.019531 2.128907.460938 4 1.738282 5.203126 3.558594zm0 0"/><path d="m164.757812 186.613281c-1.5625 5.292969-2.863281 10.761719-3.992187 16.140625-.824219 4.042969-4.378906 6.945313-8.503906 6.941406-.585938.027344-1.167969-.03125-1.734375-.171874-2.257813-.460938-4.238282-1.796876-5.507813-3.71875-1.269531-1.917969-1.722656-4.265626-1.261719-6.519532.257813-1.21875.519532-2.519531.867188-3.734375.953125-1.15625 1.996094-2.285156 3.125-3.382812 2.777344-2.777344 5.726562-5.46875 8.675781-7.984375 2.257813-1.910156 4.511719-3.730469 6.769531-5.378906 1.753907 2.195312 2.335938 5.105468 1.5625 7.808593zm0 0"/><path d="m232.878906 405.558594c-5.335937-4.351563-10.433594-8.984375-15.273437-13.886719-3.992188-3.988281-7.894531-8.15625-11.628907-12.496094-1.90625-2.648437-5.140624-4.003906-8.371093-3.503906-3.226563.496094-5.898438 2.765625-6.917969 5.871094-1.015625 3.101562-.207031 6.515625 2.101562 8.828125 3.988282 4.6875 8.242188 9.285156 12.496094 13.625 5.292969 5.292968 10.847656 10.328125 16.574219 15.011718 1.542969 1.253907 3.476563 1.925782 5.464844 1.910157 3.664062.007812 6.933593-2.285157 8.179687-5.726563s.195313-7.296875-2.625-9.632812zm-48.507812-57.1875c-6.277344-10.902344-11.5625-22.347656-15.796875-34.191406-.886719-3.109376-3.429688-5.46875-6.597657-6.121094-3.167968-.652344-6.433593.511718-8.476562 3.019531s-2.519531 5.945313-1.238281 8.914063c4.519531 12.863281 10.246093 25.269531 17.09375 37.054687 1.53125 2.683594 4.378906 4.339844 7.464843 4.339844 3.105469.011719 5.980469-1.636719 7.539063-4.324219s1.5625-6 .011719-8.691406zm-27.769532-103.960938.085938-4.253906c.046875-2.300781-.824219-4.527344-2.417969-6.1875-1.597656-1.660156-3.785156-2.617188-6.085937-2.664062-4.726563.070312-8.59375 3.785156-8.851563 8.503906-.085937 1.5625-.085937 3.039062-.085937 4.601562-.003906 12.089844.953125 24.160156 2.863281 36.097656.703125 4.199219 4.332031 7.277344 8.589844 7.289063.464843.015625.929687-.011719 1.386719-.085937 4.738281-.78125 7.957031-5.238282 7.203124-9.980469-1.804687-11.015625-2.707031-22.160157-2.6875-33.320313zm0 0"/><path d="m283.992188 440.53125c-2.863282.605469-5.640626 1.128906-8.503907 1.5625-5.378906.867188-10.761719 1.386719-16.140625 1.734375-1.214844-.605469-2.429687-1.214844-3.558594-1.910156-2.019531-1.085938-3.523437-2.933594-4.175781-5.132813-.648437-2.199218-.398437-4.570312.703125-6.582031 2.3125-4.203125 7.585938-5.753906 11.804688-3.46875 4.859375 2.6875 9.890625 5.207031 14.925781 7.460937 2.605469 1.152344 4.460937 3.53125 4.945313 6.335938zm0 0"/><path d="m245.027344 149.125c.148437 1.648438-.183594 3.304688-.953125 4.773438-2.515625 4.859374-4.859375 9.890624-6.941407 14.925781-1.296874 3.269531-4.46875 5.40625-7.984374 5.378906-1.128907.011719-2.246094-.195313-3.296876-.605469-4.425781-1.804687-6.5625-6.847656-4.773437-11.28125 1.472656-3.734375 3.125-7.378906 4.945313-11.023437 3.472656-.605469 6.941406-1.128907 10.414062-1.472657 2.863281-.347656 5.726562-.523437 8.589844-.695312zm0 0"/><path d="m320.960938 370.847656c-9.304688-3.949218-18.199219-8.804687-26.554688-14.492187-2.550781-2.03125-6.019531-2.460938-8.988281-1.117188-2.964844 1.347657-4.929688 4.238281-5.085938 7.492188-.152343 3.257812 1.527344 6.324219 4.355469 7.941406 9.257812 6.320313 19.113281 11.726563 29.417969 16.140625 1.074219.4375 2.222656.675781 3.382812.695312 4.136719.035157 7.722657-2.855468 8.566407-6.90625.84375-4.050781-1.289063-8.132812-5.09375-9.753906zm-49.726563-33.933594c-7.140625-7.164062-13.566406-15.011718-19.175781-23.429687-1.738282-2.574219-4.714844-4.023437-7.8125-3.808594-3.09375.21875-5.839844 2.070313-7.199219 4.859375-1.363281 2.792969-1.128906 6.097656.605469 8.667969 6.253906 9.300781 13.371094 17.988281 21.261718 25.949219 1.609376 1.675781 3.835938 2.617187 6.160157 2.601562 3.503906-.019531 6.65625-2.136718 8-5.375 1.34375-3.238281.621093-6.964844-1.839844-9.464844zm-33.410156-49.984374c-3.832031-9.332032-6.765625-19.007813-8.761719-28.898438-.5-3.140625-2.675781-5.761719-5.675781-6.824219s-6.339844-.398437-8.707031 1.734375c-2.363282 2.128906-3.371094 5.382813-2.628907 8.476563 2.183594 10.996093 5.4375 21.75 9.722657 32.109375 1.351562 3.257812 4.539062 5.382812 8.070312 5.378906 2.875-.039062 5.546875-1.492188 7.140625-3.886719 1.597656-2.394531 1.910156-5.417969.839844-8.089843zm-16.050781-99.273438c-4.695313-.847656-9.191407 2.253906-10.066407 6.941406-2.015625 10.699219-3.035156 21.566406-3.039062 32.457032v1.039062c.042969 2.242188.988281 4.371094 2.621093 5.90625 1.632813 1.535156 3.816407 2.347656 6.058594 2.25h.085938c4.882812-.234375 8.691406-4.308594 8.589844-9.195312-.023438-9.8125.875-19.605469 2.691406-29.246094.429687-2.269532-.058594-4.613282-1.363282-6.519532-1.300781-1.90625-3.308593-3.214843-5.578124-3.632812zm0 0"/><path d="m370.597656 384.296875c-1.648437 2.34375-3.46875 4.601563-5.292968 6.769531h-.085938c-2.257812 2.601563-4.511719 5.292969-7.117188 7.808594-3.992187-.519531-7.894531-1.214844-11.800781-1.996094-3.253906-.394531-6.007812-2.59375-7.117187-5.679687-1.109375-3.082031-.382813-6.53125 1.875-8.90625 2.257812-2.378907 5.660156-3.28125 8.800781-2.335938 5.292969 1.042969 10.757813 1.910157 16.226563 2.519531 1.65625.128907 3.230468.765626 4.511718 1.820313zm0 0"/></g><path d="m304.558594 27.894531-.257813 34.277344h-104.222656l.085937-9.113281.261719-26.03125c.023438-6.90625 2.804688-13.511719 7.726563-18.351563 4.921875-4.839843 11.574218-7.515625 18.480468-7.421875l52.066407.34375c14.390625.148438 25.953125 11.90625 25.859375 26.296875zm0 0" fill="#7f6e5d"/><path d="m107.484375 58.179688h-.089844l-103.613281 9.71875h-.085938l-.78125-8.675782-2.429687-25.949218c-1.308594-14.300782 9.214844-26.960938 23.515625-28.289063l51.808594-4.859375c6.875-.675781 13.730468 1.417969 19.058594 5.816406 5.324218 4.398438 8.679687 10.734375 9.316406 17.613282zm0 0" fill="#7f6e5d"/><path d="m147.75 485.742188c.464844 4.867187-1.144531 9.703124-4.433594 13.320312-3.289062 3.617188-7.949218 5.683594-12.835937 5.683594h-69.683594c-8.945313-.003906-16.421875-6.800782-17.269531-15.707032l-39.832032-421.140624h.085938l103.613281-9.71875h.089844l15.707031 166.53125v.085937c-29.726562 53.308594-23.515625 119.425781 15.617188 166.269531zm0 0" fill="#cbb292"/><path d="m500.421875 67.898438-39.832031 421.140624c-.851563 8.90625-8.328125 15.703126-17.269532 15.707032h-69.683593c-4.902344.023437-9.589844-2.03125-12.894531-5.648438-3.308594-3.621094-4.929688-8.472656-4.460938-13.355468l9.023438-94.675782c39.132812-46.84375 45.34375-112.960937 15.621093-166.269531v-.085937l15.707031-166.53125 103.703126 9.71875zm0 0" fill="#cbb292"/><path d="m503.632812 33.273438-2.429687 25.949218-.78125 8.675782h-.085937l-103.703126-9.71875 3.296876-34.625c.640624-6.878907 3.992187-13.214844 9.320312-17.613282 5.324219-4.398437 12.183594-6.492187 19.058594-5.816406l51.804687 4.859375c14.300781 1.328125 24.824219 13.988281 23.519531 28.289063zm0 0" fill="#7f6e5d"/></svg>