<?xml version="1.0" encoding="iso-8859-1"?>
<!-- Generator: Adobe Illustrator 19.0.0, SVG Export Plug-In . SVG Version: 6.00 Build 0)  -->
<svg version="1.1" id="Capa_1" xmlns="http://www.w3.org/2000/svg" xmlns:xlink="http://www.w3.org/1999/xlink" x="0px" y="0px"
	 viewBox="0 0 55.546 55.546" style="enable-background:new 0 0 55.546 55.546;" xml:space="preserve">
<path style="fill:#FAC176;" d="M54.697,11.631L43.956,0.889c-1.131-1.131-2.965-1.131-4.096,0L11.487,29.262
	c-1.487,1.487-0.815,4.316,2.016,4.591c1.102,0.107,1.576,1.456,0.793,2.239L0.606,49.783c-0.807,0.807-0.807,2.116,0,2.924
	l2.193,2.193c0.807,0.807,2.116,0.807,2.924,0l13.125-13.125c1.004-1.004,2.64-0.459,2.992,0.918
	c0.592,2.312,3.111,2.782,4.485,1.408l8.98-8.98c-1.971-1.686-3.118-4.308-2.733-7.183c0.47-3.506,3.316-6.351,6.822-6.822
	c2.874-0.386,5.497,0.761,7.183,2.733l8.122-8.122C55.828,14.595,55.828,12.761,54.697,11.631z"/>
<rect x="6.691" y="43.196" transform="matrix(-0.7071 0.7071 -0.7071 -0.7071 47.9385 73.7711)" style="fill:#38454F;" width="4" height="7.236"/>
<circle style="fill:#C2615F;" cx="40.497" cy="29.041" r="8"/>
<g>
</g>
<g>
</g>
<g>
</g>
<g>
</g>
<g>
</g>
<g>
</g>
<g>
</g>
<g>
</g>
<g>
</g>
<g>
</g>
<g>
</g>
<g>
</g>
<g>
</g>
<g>
</g>
<g>
</g>
</svg>
