<svg height="480pt" viewBox="-11 0 480 480.1" width="480pt" xmlns="http://www.w3.org/2000/svg"><path d="m457.390625 175.859375-40.519531 26.371094v-52.730469zm0 0" fill="#fedb41"/><path d="m38.03125 36.03125v-.019531c0-19.890625 17.058594-36.011719 38.089844-36.011719h214.980468l1.269532 1.289062v77.511719c0 9.949219 8.527344 18.007813 19.039062 18.007813h74.71875l.589844.601562v52.089844h-266.597656v9.101562l-32.28125-.300781.25 34.828125h32.03125v9.101563h266.597656v205.828125c0 19.863281-17 35.953125-37.980469 36.011718h-272.617187c-21.03125 0-38.089844-16.121093-38.089844-36.011718zm0 0" fill="#00efd1"/><path d="m292.371094 1.289062 93.757812 95.519532h-74.71875c-10.511718 0-19.039062-8.058594-19.039062-18.007813zm0 0" fill="#00acea"/><path d="m348.738281 444.070312v.019532c0 19.890625-17.046875 36.011718-38.089843 36.011718h-272.507813c-21.03125 0-38.0898438-16.121093-38.0898438-36.011718v-372.050782c0-19.859374 16.9999998-35.949218 37.9804688-36.007812v372.027344c0 19.890625 17.058594 36.011718 38.089844 36.011718zm0 0" fill="#00acea"/><g fill="#fedb41"><path d="m120.121094 158.601562v34.527344h-32.03125l-.25-34.828125zm0 0"/><path d="m219.710938 276.339844h-131.53125c-4.417969 0-8-3.582032-8-8 0-4.417969 3.582031-8 8-8h131.53125c4.417968 0 8 3.582031 8 8 0 4.417968-3.582032 8-8 8zm0 0"/><path d="m317.089844 315.289062h-228.910156c-4.417969 0-8-3.582031-8-8 0-4.417968 3.582031-8 8-8h228.910156c4.417968 0 8 3.582032 8 8 0 4.417969-3.582032 8-8 8zm0 0"/><path d="m317.089844 354.238281h-228.910156c-4.417969 0-8-3.578125-8-8 0-4.417969 3.582031-8 8-8h228.910156c4.417968 0 8 3.582031 8 8 0 4.421875-3.582032 8-8 8zm0 0"/><path d="m317.089844 393.199219h-228.910156c-4.417969 0-8-3.582031-8-8s3.582031-8 8-8h228.910156c4.417968 0 8 3.582031 8 8s-3.582032 8-8 8zm0 0"/></g><path d="m249.191406 238.601562h-97.140625c-3.902343-.015624-7.632812-1.597656-10.351562-4.394531-3.125-3.226562-4.84375-7.5625-4.777344-12.058593l.167969-19.089844c.039062-4.417969 3.652344-7.96875 8.070312-7.929688 4.417969.039063 7.96875 3.652344 7.929688 8.070313l-.167969 19.089843c-.003906.105469.003906.207032.023437.308594h96.246094c4.417969 0 8 3.582032 8 8 0 4.417969-3.582031 8-8 8zm0 0" fill="#f4b844"/><path d="m120.121094 193.128906v-43.628906h296.75v52.730469h-296.75zm0 0" fill="#00acea"/></svg>