<?xml version="1.0" encoding="iso-8859-1"?>
<!-- Generator: Adobe Illustrator 21.0.0, SVG Export Plug-In . SVG Version: 6.00 Build 0)  -->
<svg version="1.1" id="Capa_1" xmlns="http://www.w3.org/2000/svg" xmlns:xlink="http://www.w3.org/1999/xlink" x="0px" y="0px"
	 viewBox="0 0 512.706 512.706" style="enable-background:new 0 0 512.706 512.706;" xml:space="preserve">
<g transform="translate(-1)">
	<path style="fill:#F3D55B;" d="M405.568,365.021h-0.088c-0.353-0.088-0.53-0.265-0.883-0.353
		c-11.652-4.326-22.422-8.563-31.603-13.065c-0.486-0.169-0.959-0.375-1.412-0.618c-6.031-2.947-11.765-6.465-17.126-10.505
		c-28.072-22.334-28.248-62.323-27.189-77.771c7.19-10.32,12.729-21.697,16.419-33.721c1.249-4.256,2.019-8.638,2.295-13.065
		l0.088-1.501c1.834,3.851,5.627,6.391,9.887,6.621c6.045,0.066,11.612-3.281,14.389-8.651
		c6.704-12.879,10.302-27.148,10.505-41.666c0.484-4.79-0.027-9.629-1.501-14.212c-0.841-2.396-2.378-4.486-4.414-6.003
		C421.811,0.353,336.801,0.353,336.801,0.353H177.905c0,0-85.01,0-38.135,150.157c-2.036,1.517-3.573,3.607-4.414,6.003
		c-1.474,4.584-1.985,9.422-1.501,14.212c0.203,14.518,3.8,28.787,10.505,41.666c2.777,5.37,8.344,8.717,14.389,8.651
		c4.26-0.229,8.053-2.769,9.887-6.621l0.088,1.501c0.277,4.427,1.046,8.809,2.295,13.065c3.69,12.024,9.23,23.401,16.419,33.721
		c1.059,15.448,0.883,55.437-27.189,77.771c-5.36,4.04-11.095,7.558-17.126,10.505c-2.354,1.177-4.826,2.325-7.415,3.443
		c-7.768,3.443-16.419,6.797-25.6,10.24c-2.295,0.883-4.679,1.766-7.062,2.648C67.472,380.646,26.07,394.681,1,414.808l0.353,0.441
		v44.138c0,29.252,23.713,52.965,52.966,52.965h406.069c29.252,0,52.966-23.713,52.966-52.965V415.25l0.353-0.441
		C487.223,393.534,442.468,379.057,405.568,365.021z"/>
	<g>
		<path style="fill:#CBB292;" d="M168.636,214.422c-1.834,3.851-5.627,6.391-9.887,6.621c-6.045,0.066-11.612-3.281-14.389-8.651
			c-6.704-12.879-10.302-27.148-10.505-41.666c-0.484-4.79,0.027-9.629,1.501-14.212c0.841-2.396,2.378-4.486,4.414-6.003
			c5.728-3.37,12.842-3.337,18.538,0.088c2.145,1.127,4.159,2.489,6.003,4.061L168.636,214.422z"/>
		<path style="fill:#CBB292;" d="M380.851,170.726c-0.203,14.518-3.8,28.787-10.505,41.666c-2.777,5.37-8.344,8.717-14.389,8.651
			c-4.26-0.229-8.053-2.769-9.887-6.621l4.326-59.763c1.844-1.572,3.857-2.934,6.003-4.061c5.696-3.425,12.809-3.459,18.538-0.088
			c2.036,1.517,3.573,3.607,4.414,6.003C380.824,161.097,381.335,165.935,380.851,170.726z"/>
		<path style="fill:#CBB292;" d="M372.994,351.603l-0.883,1.854c0,0-30.808,62.411-99.663,77.065
			c-10.098,2.178-20.547,2.148-30.632-0.088c-63.294-13.771-94.367-67.796-98.692-75.917l-7.415-0.088
			c2.56-1.177,5.032-2.325,7.415-3.443c6.031-2.947,11.765-6.465,17.126-10.505c28.072-22.334,28.248-62.323,27.189-77.771
			c7.455,10.903,16.744,20.431,27.454,28.16c8.924,6.323,19.607,9.688,30.543,9.622h23.835c10.937,0.066,21.619-3.299,30.543-9.622
			c10.71-7.729,19.999-17.257,27.454-28.16c-1.059,15.448-0.883,55.437,27.189,77.771c5.36,4.04,11.095,7.558,17.126,10.505
			C372.036,351.228,372.508,351.434,372.994,351.603z"/>
	</g>
	<path style="fill:#4C8056;" d="M405.48,365.021l-0.883,2.472c-10.681,18.803-52.436,83.068-131.354,98.428
		c-10.504,1.942-21.275,1.942-31.779,0c-78.919-15.36-120.673-79.625-131.354-98.428l-7.062-0.177
		c2.383-0.883,4.767-1.766,7.062-2.648c9.181-3.443,17.832-6.797,25.6-10.24l7.415,0.088c4.326,8.121,35.399,62.146,98.692,75.917
		c10.085,2.236,20.534,2.266,30.632,0.088c68.855-14.654,99.663-77.065,99.663-77.065l0.883-1.854
		c9.181,4.502,19.95,8.739,31.603,13.065C404.95,364.756,405.127,364.932,405.48,365.021z"/>
	<g>
		<path style="fill:#F0C419;" d="M89.629,512.353H71.974c0-48.287-23.658-73.004-23.923-73.269
			c-3.437-3.461-3.417-9.054,0.044-12.491s9.054-3.417,12.491,0.044C61.734,427.873,89.629,456.386,89.629,512.353z"/>
		<path style="fill:#F0C419;" d="M466.655,439.084c-0.441,0.53-23.923,25.247-23.923,73.269h-17.655
			c0-55.967,27.895-84.48,29.043-85.716c3.469-3.443,9.066-3.443,12.535,0C470.078,430.08,470.078,435.641,466.655,439.084z"/>
	</g>
	<path style="fill:#FDD7AD;" d="M354.457,97.457l-4.061,57.203l-4.326,59.763l-0.088,1.501c-0.277,4.427-1.046,8.809-2.295,13.065
		c-3.69,12.024-9.23,23.401-16.419,33.721c-7.455,10.903-16.744,20.431-27.454,28.16c-8.924,6.323-19.607,9.688-30.543,9.622
		h-23.835c-10.937,0.066-21.619-3.299-30.543-9.622c-10.71-7.729-19.999-17.257-27.454-28.16
		c-7.19-10.32-12.729-21.697-16.419-33.721c-1.249-4.256-2.019-8.638-2.295-13.065l-0.088-1.501l-4.326-59.763l-4.061-57.203
		c0,0,0-35.31,35.31-35.31s26.483,17.655,61.793,17.655v-35.31C257.353,44.491,363.284,26.836,354.457,97.457z"/>
	<path style="fill:#E4C05C;" d="M374.937,150.51c-5.728-3.37-12.842-3.337-18.538,0.088c-2.145,1.127-4.159,2.489-6.003,4.061
		l4.061-57.203c8.828-70.621-97.103-52.966-97.103-52.966v35.31c-35.31,0-26.483-17.655-61.793-17.655s-35.31,35.31-35.31,35.31
		l4.061,57.203c-1.844-1.572-3.857-2.934-6.003-4.061c-5.696-3.425-12.809-3.459-18.538-0.088
		C92.895,0.353,177.905,0.353,177.905,0.353h158.897C336.801,0.353,421.811,0.353,374.937,150.51z"/>
</g>
<g>
</g>
<g>
</g>
<g>
</g>
<g>
</g>
<g>
</g>
<g>
</g>
<g>
</g>
<g>
</g>
<g>
</g>
<g>
</g>
<g>
</g>
<g>
</g>
<g>
</g>
<g>
</g>
<g>
</g>
</svg>
