<?xml version="1.0" encoding="iso-8859-1"?>
<!-- Generator: Adobe Illustrator 19.0.0, SVG Export Plug-In . SVG Version: 6.00 Build 0)  -->
<svg version="1.1" id="Layer_1" xmlns="http://www.w3.org/2000/svg" xmlns:xlink="http://www.w3.org/1999/xlink" x="0px" y="0px"
	 viewBox="0 0 491.52 491.52" style="enable-background:new 0 0 491.52 491.52;" xml:space="preserve">
<circle style="fill:#EFC84A;" cx="245.76" cy="245.76" r="245.76"/>
<path style="opacity:0.1;enable-background:new    ;" d="M348.723,132.915l-0.614-0.614c-1.997-1.946-4.71-3.072-7.731-3.072
	h-39.731l-6.042-6.042c-0.87-0.922-2.048-1.485-3.379-1.485h-21.658l-10.957-10.957c-3.174-3.533-7.731-5.786-12.851-5.786
	c-9.37,0-16.947,7.475-17.203,16.742h-28.262c-2.56,0-4.659,2.099-4.659,4.711v2.816h-44.493c-6.247,0-11.264,5.018-11.264,11.264
	v234.803c0,3.123,1.28,5.939,3.328,7.987L251.303,491.38c123.637-2.746,224.713-96.735,238.546-217.326L349.082,133.325
	L348.723,132.915z"/>
<path style="fill:#64798A;" d="M340.381,129.204H151.139c-6.227,0-11.276,5.048-11.276,11.275v234.805
	c0,6.227,5.048,11.275,11.276,11.275h189.241c6.227,0,11.276-5.048,11.276-11.275V140.479
	C351.656,134.252,346.608,129.204,340.381,129.204z"/>
<rect x="152.269" y="144.026" style="fill:#EBF0F3;" width="186.977" height="230.656"/>
<rect x="152.269" y="138.342" style="fill:#FFFFFF;" width="186.977" height="230.656"/>
<rect x="187.346" y="129.229" style="fill:#3A556A;" width="116.823" height="9.16"/>
<rect x="187.346" y="138.342" style="fill:#E1E6E9;" width="116.823" height="20.132"/>
<path style="fill:#DC8744;" d="M291.207,121.719h-28.232c-0.275-9.296-7.854-16.759-17.214-16.759
	c-9.363,0-16.941,7.463-17.216,16.759h-28.232c-2.586,0-4.68,2.095-4.68,4.68v23.816h100.255v-23.816
	C295.887,123.814,293.793,121.719,291.207,121.719z"/>
<rect x="164.557" y="227.533" style="fill:#E56353;" width="17.864" height="24.658"/>
<rect x="188.636" y="199.675" style="fill:#27A2DB;" width="17.864" height="52.495"/>
<rect x="212.705" y="171.53" style="fill:#44C4A1;" width="17.864" height="80.64"/>
<rect x="236.749" y="209.29" style="fill:#FCD462;" width="17.864" height="42.885"/>
<rect x="164.557" y="244.434" style="fill:#D15241;" width="17.864" height="7.741"/>
<rect x="188.636" y="244.434" style="fill:#2D93BA;" width="17.864" height="7.741"/>
<rect x="212.705" y="244.434" style="fill:#3EA69B;" width="17.864" height="7.741"/>
<rect x="236.749" y="244.434" style="fill:#F6C358;" width="17.864" height="7.741"/>
<g>
	<rect x="164.557" y="264.812" style="fill:#D5D6DB;" width="162.386" height="5.519"/>
	<rect x="271.923" y="177.623" style="fill:#D5D6DB;" width="55.03" height="5.519"/>
	<rect x="271.923" y="199.419" style="fill:#D5D6DB;" width="55.03" height="5.519"/>
	<rect x="271.923" y="221.235" style="fill:#D5D6DB;" width="55.03" height="5.519"/>
	<rect x="271.923" y="242.995" style="fill:#D5D6DB;" width="55.03" height="5.519"/>
	<rect x="164.557" y="286.607" style="fill:#D5D6DB;" width="162.386" height="5.519"/>
	<rect x="164.557" y="307.814" style="fill:#D5D6DB;" width="162.386" height="54.636"/>
</g>
<rect x="164.557" y="305.608" style="fill:#EBF0F3;" width="162.386" height="54.636"/>
<path style="fill:#44C4A1;" d="M167.552,358.739c-0.355,0-0.715-0.123-1.004-0.373c-0.643-0.553-0.715-1.526-0.162-2.169
	l20.677-24.024c0.481-0.559,1.28-0.697,1.923-0.337l22.906,12.901l20.256-20.968c0.487-0.505,1.262-0.622,1.887-0.258l24.421,14.326
	l18.928-20.896c0.469-0.523,1.238-0.655,1.845-0.333l21.969,11.294l18.94-16.266c0.655-0.55,1.622-0.481,2.169,0.162
	c0.553,0.646,0.481,1.616-0.162,2.169l-19.728,16.942c-0.481,0.409-1.148,0.484-1.707,0.201l-21.837-11.228l-18.977,20.947
	c-0.487,0.541-1.286,0.658-1.923,0.294l-24.457-14.347l-20.238,20.953c-0.481,0.499-1.244,0.613-1.863,0.27l-22.846-12.865
	l-19.854,23.069C168.411,358.559,167.984,358.739,167.552,358.739z"/>
<path style="fill:#E56353;" d="M167.552,358.739c-0.583,0-1.142-0.334-1.4-0.901c-0.355-0.775-0.012-1.686,0.763-2.037
	l25.364-11.522c0.391-0.183,0.829-0.186,1.232-0.018l18.093,7.562l18.237-9.708c0.349-0.186,0.745-0.228,1.13-0.126l24.367,6.688
	l22.402-13.4c0.349-0.207,0.763-0.264,1.142-0.177l27.131,6.472l7.619-5.252c0.697-0.475,1.659-0.303,2.139,0.394
	c0.481,0.7,0.306,1.658-0.397,2.142l-8.184,5.639c-0.361,0.246-0.817,0.324-1.226,0.228l-27.185-6.487l-22.426,13.418
	c-0.361,0.213-0.787,0.273-1.196,0.165l-24.415-6.7l-18.34,9.762c-0.403,0.222-0.889,0.237-1.316,0.06l-18.147-7.586l-24.751,11.246
	C167.984,358.694,167.768,358.739,167.552,358.739z"/>
<g>
</g>
<g>
</g>
<g>
</g>
<g>
</g>
<g>
</g>
<g>
</g>
<g>
</g>
<g>
</g>
<g>
</g>
<g>
</g>
<g>
</g>
<g>
</g>
<g>
</g>
<g>
</g>
<g>
</g>
</svg>
