<svg height="496pt" viewBox="0 0 496 496" width="496pt" xmlns="http://www.w3.org/2000/svg"><path d="m176 112h32v72h-32zm0 0" fill="#cf9e76"/><path d="m8 232v208c0 26.511719 107.449219 48 240 48s240-21.488281 240-48v-208zm0 0" fill="#ccd1d9"/><path d="m328 388.359375c93.214844-8.785156 160-32.496094 160-60.359375v-48c0 35.34375-107.449219 64-240 64s-240-28.65625-240-64v48c0 27.863281 66.785156 51.574219 160 60.359375zm0 0" fill="#e6e9ed"/><path d="m328 436.359375h-160c-93.214844-8.785156-160-32.496094-160-60.359375v64c0 26.511719 107.449219 48 240 48s240-21.488281 240-48v-64c0 27.863281-66.785156 51.574219-160 60.359375zm0 0" fill="#e6e9ed"/><path d="m176 154.894531v29.105469h32v-31.105469c-10.742188.472657-21.441406 1.136719-32 2zm0 0" fill="#b27946"/><path d="m288 112h32v72h-32zm0 0" fill="#cf9e76"/><path d="m288 152.894531v31.105469h32v-29.105469c-10.558594-.863281-21.257812-1.527343-32-2zm0 0" fill="#b27946"/><path d="m384 88h80v48h-80zm0 0" fill="#ff826e"/><path d="m168 485.257812c25.03125 1.765626 51.945312 2.742188 80 2.742188s54.96875-.976562 80-2.742188v-109.257812h-160zm0 0" fill="#37bc9b"/><path d="m200 486.992188c15.527344.632812 31.535156 1.007812 48 1.007812s32.472656-.375 48-1.007812v-78.992188h-96zm0 0" fill="#48cfad"/><path d="m488 232c0-35.347656-107.453125-64-240-64s-240 28.652344-240 64 107.453125 64 240 64 240-28.652344 240-64zm0 0" fill="#5cd6b3"/><path d="m144 8h208v112h-208zm0 0" fill="#fcd770"/><path d="m176 120h32v16h-32zm0 0" fill="#b27946"/><path d="m8 88h80v48h-80zm0 0" fill="#ff826e"/><path d="m176 40h48v48h-48zm0 0" fill="#e6e9ed"/><path d="m272 40h48v48h-48zm0 0" fill="#e6e9ed"/><path d="m394.648438 181.351562-55.921876 55.921876c51.960938 6.382812 90.816407 18.03125 104.105469 32.046874 28.375-10.503906 45.167969-23.382812 45.167969-37.320312 0-20.617188-36.59375-38.945312-93.351562-50.648438zm0 0" fill="#48cfad"/><path d="m157.273438 237.273438-53.273438-53.273438-6.96875-1.742188c-54.296875 11.734376-89.03125 29.652344-89.03125 49.742188 0 13.9375 16.785156 26.816406 45.160156 37.328125 13.28125-14.015625 52.144532-25.671875 104.113282-32.054687zm0 0" fill="#48cfad"/><path d="m248 232c-95.167969 0-174.632812 15.96875-194.855469 37.335938 43.566407 16.144531 114.582031 26.664062 194.855469 26.664062s151.289062-10.519531 194.855469-26.664062c-20.214844-21.367188-99.6875-37.335938-194.855469-37.335938zm0 0" fill="#f0d0b4"/><path d="m248 232c-95.167969 0-174.632812 15.96875-194.855469 37.335938 43.566407 16.144531 114.582031 26.664062 194.855469 26.664062s151.289062-10.519531 194.855469-26.664062c-20.214844-21.367188-99.6875-37.335938-194.855469-37.335938zm0 0" fill="#37bc9b"/><path d="m288 120h32v16h-32zm0 0" fill="#b27946"/><path d="m472 199.71875v-119.71875h-96v64h80v47.472656c-31.136719-13.617187-77.457031-22.960937-128-27.746094v-35.726562h32v-128h-224v128h32v35.726562c-25.558594 2.417969-50.023438 6.007813-72 10.722657v-94.449219h-96v64h80v34.191406c-47.550781 12.160156-80 30.25-80 53.808594v208c0 44.296875 162.214844 56 248 56s248-11.703125 248-56v-208c0-12.273438-8.855469-23.039062-24-32.28125zm-80-71.71875v-32h64v32zm-376 0v-32h64v32zm464 104c0 8.761719-12.390625 18.816406-35.449219 27.96875-16.519531-13.175781-49.765625-22.542969-88.796875-28.410156l41.414063-41.414063c53.046875 11.617188 82.832031 28.289063 82.832031 41.855469zm-200-104v32.601562c-10.664062-.394531-21.359375-.601562-32-.601562s-21.335938.207031-32 .601562v-32.601562zm-24 96.039062v-47.984374c47.472656.410156 88.640625 4.378906 122.273438 10.359374l-42.496094 42.496094c-25.9375-3.007812-53.480469-4.597656-79.777344-4.871094zm-16-47.984374v47.984374c-26.296875.273438-53.839844 1.863282-79.785156 4.863282l-42.496094-42.496094c33.640625-5.972656 74.808594-9.941406 122.28125-10.351562zm8 63.945312c84.105469 0 149.257812 12.320312 177.390625 26.601562-40.132813 12.160157-100.902344 21.398438-177.390625 21.398438s-137.257812-9.238281-177.382812-21.398438c28.125-14.28125 93.285156-26.601562 177.382812-26.601562zm64-77.617188c-5.304688-.390624-10.640625-.742187-16-1.039062v-33.34375h16zm-160-146.382812h192v96h-192zm32 112h16v33.34375c-5.359375.296875-10.695312.648438-16 1.039062zm-85.167969 62.144531 41.414063 41.414063c-39.03125 5.867187-72.269532 15.234375-88.796875 28.410156-23.058594-9.152344-35.449219-19.207031-35.449219-27.96875 0-13.566406 29.785156-30.238281 82.832031-41.855469zm-82.832031 164.75c27.511719 21.410157 86.441406 34.691407 144 40.707031v31.863282c-93.519531-9.953125-144-33.609375-144-51.464844zm304 122.898438c-5.214844.328125-10.542969.632812-16 .894531v-78.6875h-112v78.6875c-5.457031-.261719-10.785156-.558594-16-.894531v-93.792969h144zm-80 2.167969c-11.039062-.074219-21.734375-.273438-32-.609376v-63.351562h32zm16-63.960938h32v63.34375c-10.265625.34375-20.960938.535156-32 .609375zm-240 24v-37.105469c27.511719 21.410157 86.441406 34.691407 144 40.707031v33.0625c-93.808594-7.535156-144-26.03125-144-36.664062zm320 36.664062v-33.0625c57.558594-6.015624 116.488281-19.296874 144-40.707031v37.105469c0 10.632812-50.191406 29.128906-144 36.664062zm0-49.199218v-31.863282c57.558594-6.015624 116.488281-19.296874 144-40.707031v21.105469c0 17.855469-50.480469 41.511719-144 51.464844zm0-48v-11.464844h-176v11.464844c-93.519531-9.953125-144-33.609375-144-51.464844v-21.199219c37.902344 29.519531 137.273438 45.199219 232 45.199219s194.097656-15.679688 232-45.199219v21.199219c0 17.855469-50.480469 41.511719-144 51.464844zm-88-43.464844c-143.742188 0-232-32.617188-232-56v-21.199219c37.902344 29.519531 137.273438 45.199219 232 45.199219s194.097656-15.679688 232-45.199219v21.199219c0 23.382812-88.257812 56-232 56zm0 0"/><path d="m168 96h64v-64h-64zm16-48h32v32h-32zm0 0"/><path d="m264 96h64v-64h-64zm16-48h32v32h-32zm0 0"/></svg>