<svg height="512pt" viewBox="0 0 512 512" width="512pt" xmlns="http://www.w3.org/2000/svg"><path d="m512 256c0 141.386719-114.613281 256-256 256s-256-114.613281-256-256 114.613281-256 256-256 256 114.613281 256 256zm0 0" fill="#ea2828"/><path d="m512 256c0-4.65625-.132812-9.285156-.378906-13.878906l-90.097656-90.101563-32.800782 28.003907-112.328125-112.332032-59.546875 164.863282-83.832031-83.835938-35.113281 50.660156 85.269531 85.269532-93.34375 74.488281 150.453125 152.371093c5.203125.3125 10.4375.492188 15.71875.492188 141.386719 0 256-114.613281 256-256zm0 0" fill="#c61a1a"/><path d="m256 77.019531 44.746094 101.480469 110.253906-11.988281-65.511719 89.488281 65.511719 89.488281-110.253906-11.988281-44.746094 101.480469-44.746094-101.480469-110.253906 11.988281 65.511719-89.488281-65.511719-89.488281 110.253906 11.988281zm0 0" fill="#ffce00"/><path d="m256 434.980469 44.746094-101.480469 110.253906 11.988281-65.511719-89.488281 65.511719-89.488281-110.253906 11.988281-44.746094-101.480469zm0 0" fill="#fdba12"/><path d="m286.910156 90.910156c0 17.070313-13.839844 30.910156-30.910156 30.910156s-30.910156-13.839843-30.910156-30.910156c0-17.070312 13.839844-30.910156 30.910156-30.910156s30.910156 13.839844 30.910156 30.910156zm0 0" fill="#fdba12"/><path d="m256 121.820312c17.070312 0 30.910156-13.839843 30.910156-30.910156 0-17.070312-13.839844-30.910156-30.910156-30.910156zm0 0" fill="#ffa300"/><path d="m286.910156 421c0 17.070312-13.839844 30.910156-30.910156 30.910156s-30.910156-13.839844-30.910156-30.910156 13.839844-30.910156 30.910156-30.910156 30.910156 13.839844 30.910156 30.910156zm0 0" fill="#fdba12"/><path d="m256 451.910156c17.070312 0 30.910156-13.839844 30.910156-30.910156s-13.839844-30.910156-30.910156-30.910156zm0 0" fill="#ffa300"/><path d="m425.109375 156.957031c-8.625-14.734375-27.558594-19.6875-42.292969-11.0625-14.730468 8.625-19.683594 27.558594-11.058594 42.292969 8.625 14.730469 27.558594 19.683594 42.289063 11.058594 14.734375-8.625 19.683594-27.558594 11.0625-42.289063zm0 0" fill="#ffa300"/><path d="m140.242188 323.714844c-8.625-14.730469-27.558594-19.683594-42.289063-11.058594-14.734375 8.625-19.6875 27.558594-11.0625 42.292969 8.625 14.730469 27.558594 19.683593 42.292969 11.058593 14.730468-8.625 19.683594-27.558593 11.058594-42.292968zm0 0" fill="#fdba12"/><path d="m129.089844 145.996094c-14.742188-8.613282-33.671875-3.648438-42.28125 11.09375-8.613282 14.738281-3.648438 33.667968 11.09375 42.277344 14.738281 8.613281 33.667968 3.648437 42.28125-11.089844 8.609375-14.738282 3.644531-33.667969-11.09375-42.28125zm0 0" fill="#fdba12"/><path d="m414.074219 312.523438c-14.738281-8.613282-33.667969-3.648438-42.28125 11.089843-8.609375 14.738281-3.644531 33.667969 11.097656 42.28125 14.738281 8.613281 33.667969 3.648438 42.28125-11.09375 8.609375-14.738281 3.644531-33.667969-11.097656-42.277343zm0 0" fill="#ffa300"/><path d="m306 255c0 28.167969-22.832031 51-51 51s-51-22.832031-51-51 22.832031-51 51-51 51 22.832031 51 51zm0 0" fill="#ffa300"/><path d="m255 306c28.167969 0 51-22.832031 51-51s-22.832031-51-51-51zm0 0" fill="#ff9700"/></svg>