<svg height="512pt" viewBox="-16 0 512 512" width="512pt" xmlns="http://www.w3.org/2000/svg"><path d="m480 422v15.246094c-.507812 2.148437-.992188 4.207031-1.5 6.355468l-30 60c-2.699219 5.097657-7.800781 8.398438-13.5 8.398438s-10.800781-3.300781-13.5-8.402344l-29.890625-59.777344c-.542969-2.304687-1.066406-4.515624-1.609375-6.820312v-15c0-16.570312 13.429688-30 30-30h30c16.570312 0 30 13.429688 30 30zm0 0" fill="#ffd488"/><path d="m480 422v15.246094c-.507812 2.148437-.992188 4.207031-1.5 6.355468l-30 60c-2.699219 5.097657-7.800781 8.398438-13.5 8.398438v-120h15c16.570312 0 30 13.429688 30 30zm0 0" fill="#fb992d"/><path d="m450 152h-30c-16.570312 0-30 13.429688-30 30v240h90v-240c0-16.570312-13.429688-30-30-30zm0 0" fill="#e63950"/><path d="m480 182v240h-45v-270h15c16.570312 0 30 13.429688 30 30zm0 0" fill="#ae2538"/><path d="m360 77v420c0 8.402344-6.597656 15-15 15h-330c-8.402344 0-15-6.597656-15-15v-420c0-8.402344 6.597656-15 15-15h330c8.402344 0 15 6.597656 15 15zm0 0" fill="#444"/><path d="m360 77v420c0 8.402344-6.597656 15-15 15h-165v-450h165c8.402344 0 15 6.597656 15 15zm0 0" fill="#292929"/><path d="m30 92h300v390h-300zm0 0" fill="#d9e7ec"/><path d="m180 92h150v390h-150zm0 0" fill="#c5d3dd"/><path d="m285 30h-62.699219c-6-17.402344-22.800781-30-42.300781-30s-36.300781 12.597656-42.300781 30h-62.699219c-8.402344 0-15 6.597656-15 15v62c0 8.402344 6.597656 15 15 15h210c8.402344 0 15-6.597656 15-15v-62c0-8.402344-6.597656-15-15-15zm0 0" fill="#ffb739"/><path d="m276.210938 197 19.394531-19.394531c5.859375-5.859375 5.859375-15.351563 0-21.210938s-15.351563-5.859375-21.210938 0l-19.394531 19.394531-19.394531-19.394531c-5.859375-5.859375-15.351563-5.859375-21.210938 0s-5.859375 15.351563 0 21.210938l19.394531 19.394531-19.394531 19.394531c-5.859375 5.859375-5.859375 15.351563 0 21.210938s15.351563 5.859375 21.210938 0l19.394531-19.394531 19.394531 19.394531c5.859375 5.859375 15.351563 5.859375 21.210938 0s5.859375-15.351563 0-21.210938zm0 0" fill="#cc2e43"/><path d="m156.210938 407 19.394531-19.394531c5.859375-5.859375 5.859375-15.351563 0-21.210938s-15.351563-5.859375-21.210938 0l-19.394531 19.394531-19.394531-19.394531c-5.859375-5.859375-15.351563-5.859375-21.210938 0s-5.859375 15.351563 0 21.210938l19.394531 19.394531-19.394531 19.394531c-5.859375 5.859375-5.859375 15.351563 0 21.210938s15.351563 5.859375 21.210938 0l19.394531-19.394531 19.394531 19.394531c5.859375 5.859375 15.351563 5.859375 21.210938 0s5.859375-15.351563 0-21.210938zm0 0" fill="#e63950"/><path d="m300 437c0 8.402344-6.597656 15-15 15h-60c-8.402344 0-15-6.597656-15-15s6.597656-15 15-15h15v-68.699219l-150-150v23.699219c0 8.402344-6.597656 15-15 15s-15-6.597656-15-15v-60c0-2.101562.300781-3.898438 1.199219-5.699219 1.5-3.601562 4.5-6.601562 8.101562-8.101562 1.800781-.898438 3.597657-1.199219 5.699219-1.199219h60c8.402344 0 15 6.597656 15 15s-6.597656 15-15 15h-23.699219l68.699219 68.699219 85.5 85.800781c3 2.699219 4.5 6.601562 4.5 10.5v75h15c8.402344 0 15 6.597656 15 15zm0 0" fill="#25d9f8"/><path d="m465 62h-60c-8.402344 0-15 6.597656-15 15v105h90v-105c0-8.402344-6.597656-15-15-15zm0 0" fill="#6e6e6e"/><path d="m300 437c0 8.402344-6.597656 15-15 15h-60c-8.402344 0-15-6.597656-15-15s6.597656-15 15-15h15v-68.699219l-60-60v-42.601562l85.5 85.800781c3 2.699219 4.5 6.601562 4.5 10.5v75h15c8.402344 0 15 6.597656 15 15zm0 0" fill="#00c0f1"/><path d="m300 45v62c0 8.402344-6.597656 15-15 15h-105v-122c19.5 0 36.300781 12.597656 42.300781 30h62.699219c8.402344 0 15 6.597656 15 15zm0 0" fill="#f67a21"/><path d="m480 77v105h-45v-120h30c8.402344 0 15 6.597656 15 15zm0 0" fill="#444"/></svg>