<?xml version="1.0" encoding="iso-8859-1"?>
<!-- Generator: Adobe Illustrator 19.0.0, SVG Export Plug-In . SVG Version: 6.00 Build 0)  -->
<svg version="1.1" id="Capa_1" xmlns="http://www.w3.org/2000/svg" xmlns:xlink="http://www.w3.org/1999/xlink" x="0px" y="0px"
	 viewBox="0 0 512 512" style="enable-background:new 0 0 512 512;" xml:space="preserve">
<path style="fill:#C4C8F6;" d="M512,233.03c0,70.37-57.25,127.63-127.62,127.63H369v-15H144v15h-34.12
	C49.29,360.66,0,311.37,0,250.78S49.29,140.9,109.88,140.9c1.16,0,2.32,0.02,3.49,0.05c-0.03-1.17-0.05-2.35-0.05-3.52
	C113.32,61.65,174.96,0,250.73,0c1.76,0,3.52,0.03,5.27,0.11c31.61,1.2,61.83,13.24,85.61,34.22
	c21.36,18.85,36.25,43.71,42.79,71.08C454.76,105.42,512,162.66,512,233.03z"/>
<path style="fill:#A6AEF1;" d="M512,233.03c0,70.37-57.25,127.63-127.62,127.63H369v-15H256V0.11c31.61,1.2,61.83,13.24,85.61,34.22
	c21.36,18.85,36.25,43.71,42.79,71.08C454.76,105.42,512,162.66,512,233.03z"/>
<path style="fill:#FFC373;" d="M374.285,244.555V512H175.843c-21.024,0-38.128-17.097-38.128-38.121V218.458h24.046v1.475
	l94.235,11.574l106.266,13.049h12.023V244.555z"/>
<path style="fill:#FF9A00;" d="M374.285,180.329v76.249H175.843c-21.024,0-38.128-17.104-38.128-38.12
	c0-21.024,17.104-38.129,38.128-38.129L374.285,180.329L374.285,180.329z"/>
<polygon style="fill:#FFA920;" points="374.285,244.555 374.285,512 255.996,512 255.996,231.506 362.262,244.555 "/>
<rect x="256" y="180.33" style="fill:#E67500;stroke:#F5911E;stroke-miterlimit:10;" width="118.29" height="76.25"/>
<polygon style="fill:#4B5BE5;" points="301.464,363.393 374.285,256.578 447.106,363.393 404.204,363.393 404.204,448.771 
	344.366,448.771 344.366,363.393 "/>
<g>
</g>
<g>
</g>
<g>
</g>
<g>
</g>
<g>
</g>
<g>
</g>
<g>
</g>
<g>
</g>
<g>
</g>
<g>
</g>
<g>
</g>
<g>
</g>
<g>
</g>
<g>
</g>
<g>
</g>
</svg>
