<svg height="512pt" viewBox="0 0 512 512" width="512pt" xmlns="http://www.w3.org/2000/svg"><path d="m131.453125 57.363281c-24.878906-2.386719-49.039063 2.429688-71.453125 13.058594v321.90625l16.40625 61.722656 179.59375-287.746093c-5.835938-8.214844-26.988281-99.96875-124.546875-108.941407zm0 0" fill="#deecf1"/><path d="m452 66.542969c-18.289062-5.894531-37.355469-8.808594-57.011719-7.65625-107.058593 6.464843-136.667969 104.390625-138.988281 107.417969l179.59375 287.746093 16.40625-37.929687zm0 0" fill="#c6e2e7"/><path d="m120 0v60l-60 30-60-30v-60zm0 0" fill="#5a5a5a"/><path d="m120 0v60l-60 30v-90zm0 0" fill="#444"/><path d="m120 452v60h-120v-60l60-30zm0 0" fill="#5a5a5a"/><path d="m60 422 60 30v60h-60zm0 0" fill="#444"/><path d="m0 60h120v392h-120zm0 0" fill="#6e6e6e"/><path d="m60 60h60v392h-60zm0 0" fill="#5a5a5a"/><path d="m45 120h30v30h-30zm0 0" fill="#ffd400"/><path d="m45 180h30v60h-30zm0 0" fill="#ff6c6c"/><path d="m60 120h15v30h-15zm0 0" fill="#fdbf00"/><path d="m60 180h15v60h-15zm0 0" fill="#ff4949"/><path d="m512 0v60l-60 30-60-30v-60zm0 0" fill="#5a5a5a"/><path d="m512 0v60l-60 30v-90zm0 0" fill="#444"/><path d="m512 452v60h-120v-60l60-30zm0 0" fill="#5a5a5a"/><path d="m452 422 60 30v60h-60zm0 0" fill="#444"/><path d="m392 60h120v392h-120zm0 0" fill="#6e6e6e"/><path d="m452 60h60v392h-60zm0 0" fill="#5a5a5a"/><path d="m437 120h30v30h-30zm0 0" fill="#ffd400"/><path d="m437 180h30v60h-30zm0 0" fill="#ff6c6c"/><path d="m452 120h15v30h-15zm0 0" fill="#fdbf00"/><path d="m452 180h15v60h-15zm0 0" fill="#ff4949"/></svg>