<?xml version="1.0" encoding="iso-8859-1"?>
<!-- Generator: Adobe Illustrator 19.0.0, SVG Export Plug-In . SVG Version: 6.00 Build 0)  -->
<svg version="1.1" id="Capa_1" xmlns="http://www.w3.org/2000/svg" xmlns:xlink="http://www.w3.org/1999/xlink" x="0px" y="0px"
	 viewBox="0 0 512 512" style="enable-background:new 0 0 512 512;" xml:space="preserve">
<path style="fill:#FFC084;" d="M304.686,300.483c-10.472-2.105-18.007-14.253-18.007-24.935v-47.601h-49.605h-0.001h-49.605v47.601
	c0,10.682-7.534,22.83-18.007,24.935l-12.087,3.412v80.195h79.699h0.001h79.699v-80.195L304.686,300.483z"/>
<path style="fill:#F7B076;" d="M241.364,227.946v71.158c0,10.682,7.534,22.83,18.007,24.935l10.085,2.891l47.317,14.753v-37.788
	l-12.087-3.412c-10.473-2.105-18.007-14.253-18.007-24.935v-47.601h-45.315V227.946z"/>
<path style="fill:#00F0FF;" d="M393.852,322.703l-71.488-22.29c-3.94-1.228-8.243,0.412-10.266,4.009
	c-9.832,17.479-39.694,34.402-75.023,34.402s-65.191-16.923-75.023-34.402c-2.023-3.597-6.326-5.237-10.266-4.009l-71.488,22.29
	c-40.469,11.915-68.254,49.062-68.254,91.248v64.211c0,10.396,8.427,18.823,18.823,18.823h412.417
	c10.396,0,18.823-8.427,18.823-18.823v-64.211C462.105,371.764,434.319,334.618,393.852,322.703z"/>
<path style="fill:#00D6FF;" d="M393.852,322.703l-71.488-22.29c-3.94-1.228-8.243,0.412-10.266,4.009
	c-5.444,9.678-17.034,19.179-32.286,25.738l68.725,21.428c40.469,11.915,68.254,49.062,68.254,91.248v54.149h26.492
	c10.396,0,18.823-8.427,18.823-18.823v-64.211C462.105,371.764,434.319,334.618,393.852,322.703z"/>
<path style="fill:#FFC084;" d="M336.553,121.216h-6.349v-7.456V95.937c0-25.165-10.331-49.55-29.401-65.97
	c-14.951-12.874-35.967-24.11-63.728-24.42c-27.761,0.31-48.777,11.546-63.728,24.42c-19.07,16.42-29.401,40.805-29.401,65.97
	v17.823v7.456h-6.349c-9.309,0-16.855,7.546-16.855,16.855v18.678c0,9.309,7.546,16.855,16.855,16.855h6.375
	c0.525,24.462,10.805,48.007,29.376,63.998c14.951,12.873,35.967,24.11,63.728,24.42c27.762-0.31,48.778-11.546,63.728-24.42
	c18.571-15.99,28.851-39.536,29.376-63.998h6.375c9.309,0,16.855-7.546,16.855-16.855v-18.678
	C353.409,128.762,345.862,121.216,336.553,121.216z"/>
<path style="fill:#F7B076;" d="M336.553,121.216h-6.349v-7.456V95.937c0-25.165-10.331-49.55-29.401-65.97
	c-14.951-12.874-35.967-24.11-63.729-24.42c-8.119,0.091-15.657,1.121-22.639,2.849c16.892,4.179,30.511,12.462,41.089,21.571
	c19.07,16.42,29.401,40.805,29.401,65.97v17.823l-0.026,59.845c-0.525,24.462-10.805,48.007-29.376,63.998
	c-10.578,9.109-24.197,17.392-41.089,21.571c6.982,1.727,14.52,2.758,22.639,2.849c27.762-0.31,48.778-11.546,63.729-24.42
	c18.571-15.991,28.851-39.536,29.376-63.998h6.375c9.309,0,16.855-7.546,16.855-16.855v-18.678
	C353.409,128.762,345.862,121.216,336.553,121.216z"/>
<path style="fill:#F9A058;" d="M292.594,0h-55.519h-55.519c-28.571,0-51.732,23.161-51.732,51.732v71.382
	c0,0,14.245-0.322,23.4,8.737c1.906,1.887,5.146,0.508,5.146-2.174V73.732c0-12.628,10.237-22.866,22.866-22.866h20.777
	c5.449,0,10.731,1.884,14.95,5.333L219,57.865c5.101,4.17,11.486,6.448,18.075,6.448c6.588,0,12.974-2.278,18.075-6.448l2.038-1.666
	c4.219-3.449,9.501-5.333,14.95-5.333h20.777c12.628,0,22.866,10.237,22.866,22.866v55.946c0,2.682,3.24,4.061,5.146,2.174
	c9.154-9.06,23.4-8.737,23.4-8.737V51.732C344.326,23.161,321.164,0,292.594,0z"/>
<path style="fill:#EF8F48;" d="M292.594,0h-45.315c28.558,0,51.71,23.141,51.731,51.694c9.668,2.669,16.77,11.521,16.77,22.038
	v55.946c0,2.682,3.24,4.061,5.146,2.174c9.154-9.06,23.4-8.737,23.4-8.737V51.732C344.326,23.161,321.164,0,292.594,0z"/>
<g>
	<path style="fill:#E1EFFB;" d="M76.009,462.392H12.042v15.769c0,10.396,8.427,18.823,18.823,18.823h45.143L76.009,462.392
		L76.009,462.392z"/>
	<path style="fill:#E1EFFB;" d="M176.863,448.536c0.979,0,2.284-0.489,3.427-1.795l6.038-8.975v59.102h13.707v-74.767
		c0-3.1-3.1-4.896-6.038-4.896c-1.958,0-3.1,0.979-4.243,2.121l-15.012,17.787c-1.469,1.142-2.937,3.753-2.937,5.711
		C171.804,445.762,173.925,448.536,176.863,448.536z"/>
	<path style="fill:#E1EFFB;" d="M233.483,496.868v-43.926c0-15.829,7.996-23.172,21.377-23.172c13.381,0,21.54,7.343,21.54,23.172
		v43.926h13.707v-43.926c0-25.946-15.502-35.574-35.247-35.574s-35.084,9.628-35.084,35.574v43.926H233.483z"/>
</g>
<path style="fill:#00BEEA;" d="M83.69,496.868v-79.345c0-4.242-3.439-7.681-7.681-7.681s-7.681,3.439-7.681,7.681v79.345
	c0,0.04,0.005,0.078,0.006,0.117h15.351C83.685,496.946,83.69,496.907,83.69,496.868z"/>
<circle style="fill:#2ECCA6;" cx="405.158" cy="417.2" r="94.8"/>
<path style="fill:#2CA888;" d="M405.158,322.41c-7.81,0-15.396,0.951-22.657,2.732c41.412,10.158,72.138,47.519,72.138,92.063
	s-30.726,81.905-72.138,92.063c7.261,1.781,14.848,2.732,22.657,2.732c52.354,0,94.795-42.441,94.795-94.795
	S457.512,322.41,405.158,322.41z"/>
<path style="fill:#FFFFFF;" d="M458.349,401.632h-35.172c-1.351,0-2.447-1.095-2.447-2.447v-35.172c0-1.351-1.095-2.447-2.447-2.447
	H392.03c-1.351,0-2.447,1.095-2.447,2.447v35.172c0,1.351-1.095,2.447-2.447,2.447h-35.172c-1.351,0-2.447,1.095-2.447,2.447v26.253
	c0,1.351,1.095,2.447,2.447,2.447h35.172c1.351,0,2.447,1.095,2.447,2.447v35.172c0,1.351,1.095,2.447,2.447,2.447h26.253
	c1.351,0,2.447-1.095,2.447-2.447v-35.172c0-1.351,1.095-2.447,2.447-2.447h35.172c1.351,0,2.447-1.095,2.447-2.447v-26.253
	C460.796,402.727,459.699,401.632,458.349,401.632z"/>
<g>
</g>
<g>
</g>
<g>
</g>
<g>
</g>
<g>
</g>
<g>
</g>
<g>
</g>
<g>
</g>
<g>
</g>
<g>
</g>
<g>
</g>
<g>
</g>
<g>
</g>
<g>
</g>
<g>
</g>
</svg>
